<svg width="129" height="92" viewBox="0 0 129 92" fill="none" xmlns="http://www.w3.org/2000/svg">
<g clip-path="url(#clip0_13_18)">
<path d="M55.4924 58.4131C55.5649 58.4341 55.6021 58.3452 55.5361 58.3085C51.6297 56.122 46.9689 52.6706 45.2038 48.3665C44.1411 45.7751 45.4344 42.7909 48.0921 41.7008C50.3706 40.7664 53.0084 41.5637 54.2538 43.1678C54.2985 43.2253 54.3676 43.1975 54.3593 43.1246C54.1204 41.1085 55.4383 38.689 57.7169 37.7537C60.3745 36.6639 63.3908 37.8808 64.4536 40.4723C66.2187 44.7763 65.3232 50.5061 64.0766 54.8061C64.0556 54.8786 64.1445 54.9158 64.1812 54.8498C66.3677 50.9434 69.8191 46.2826 74.1231 44.5175C76.7145 43.4548 79.6987 44.7481 80.7888 47.4058C81.723 49.685 80.926 52.3221 79.3218 53.5675C79.2643 53.6122 79.2921 53.6813 79.3651 53.673C81.3812 53.4341 83.8006 54.752 84.7359 57.0306C85.8258 59.6883 84.6088 62.7045 82.0174 63.7673C77.7134 65.5324 71.9835 64.637 67.6836 63.3903C67.611 63.3693 67.5738 63.4582 67.6398 63.4949C71.5463 65.6814 76.2071 69.1328 77.9722 73.4368C79.0349 76.0282 77.7418 79.0118 75.0839 80.1025C72.8053 81.037 70.1678 80.2391 68.9221 78.6355C68.8774 78.5781 68.8084 78.6058 68.8169 78.6782C69.0558 80.6943 67.738 83.1137 65.4593 84.049C62.8017 85.1389 59.7855 83.9219 58.7226 81.3304C56.9575 77.0264 57.853 71.2966 59.0996 66.9967C59.1206 66.9241 59.0317 66.8869 58.995 66.9529C56.8085 70.8594 53.3571 75.5202 49.0531 77.2853C46.4617 78.348 43.4775 77.0547 42.3874 74.397C41.453 72.1184 42.2502 69.4807 43.8544 68.2352C43.9119 68.1905 43.8841 68.1215 43.8109 68.1304C41.7948 68.3693 39.3753 67.0514 38.44 64.7727C37.3502 62.1151 38.5671 59.0989 41.1586 58.036C45.4626 56.271 51.1924 57.1664 55.4924 58.4131Z" fill="#169B62"/>
<path d="M28.9366 89.0169L26.9628 88.1912L28.6153 84.2409L30.5905 85.0672C39.596 88.8346 44.8956 88.2187 49.6166 81.5645C50.7822 81.2415 51.9621 80.8028 53.7844 79.5539C53.9338 80.3892 54.1634 81.2055 54.4345 82.0089C48.9689 91.037 41.9521 94.4625 28.9376 89.0179L28.9366 89.0169Z" fill="#169B62"/>
<path d="M95.7302 15.2201C103.837 10.5684 121.249 7.9102 125.103 19.8719C128.293 29.5744 109.951 29.9728 104.635 30.5045C99.5843 31.0363 94.7997 31.568 90.6797 35.0235C88.0215 37.2827 85.8951 39.9409 83.3698 42.3335C79.9143 45.5234 75.7942 48.3143 71.0093 48.4471C66.6231 48.4471 62.9021 46.4535 61.7058 41.9345C60.3767 37.0172 63.965 33.2955 65.693 29.0425C66.2247 29.9726 66.7565 31.0361 67.2877 31.9662C59.845 30.9028 52.2691 33.4281 45.225 29.8398C39.9087 27.1816 35.2569 21.9981 31.8013 17.0806C29.5421 13.8907 26.6177 8.30882 29.0103 4.58728C31.4029 0.99899 35.9213 2.06192 38.8456 4.18838C42.5673 6.84654 44.8265 9.3719 49.4782 10.1692C53.0665 10.8338 56.7882 10.5681 60.5098 10.4349C65.0288 10.1692 69.5478 9.90316 74.1993 9.63752C79.3829 9.23862 80.4458 7.6439 83.3701 4.1884C85.8955 1.1313 89.8827 0.0683674 93.471 2.32758C97.99 5.11854 98.3884 10.9666 98.3884 15.6184C98.3884 18.4093 94.1355 18.4093 94.1355 15.6184C94.1355 12.9602 93.7366 1.92886 86.6928 7.6439C85.8954 8.30844 85.2309 10.1693 84.5664 11.0994C82.9717 12.9602 81.6426 13.7576 79.2501 14.1565C74.1993 15.0867 68.2185 14.5554 63.0353 14.6882C58.7825 14.821 54.5291 15.0871 50.409 14.5554C46.0229 14.0237 43.3647 12.2962 39.5108 10.4354C38.1817 9.77083 34.7262 4.45451 32.9982 9.90364C32.2009 12.2962 37.5172 17.2136 39.1119 18.9416C43.3647 23.5934 47.8837 27.1817 54.5292 27.4478C59.3138 27.5806 63.8327 26.9161 68.6174 27.4478C69.8137 27.5806 70.7438 29.3086 70.2121 30.3716C69.2819 32.498 67.8195 34.4916 67.0222 36.618C63.8323 46.0544 74.3321 43.2634 78.4523 39.9407C83.3697 35.9535 87.7558 30.5044 93.8696 28.1119C100.382 25.5866 108.357 26.1183 115.135 24.7892C117.394 24.3903 121.381 24.2575 121.116 20.2702C120.983 17.7449 114.205 15.0867 112.61 14.6883C107.16 13.0937 101.445 14.5555 96.1289 16.0174C95.5976 16.283 95.1988 15.4857 95.7305 15.22L95.7302 15.2201Z" fill="#FF873D"/>
<path d="M90.9455 18.6757C84.4329 19.6059 78.0534 20.1376 71.408 20.4038C66.4907 20.5366 60.2438 21.9984 55.592 20.0049C55.0603 19.7392 55.1931 18.9414 55.592 18.6758C59.8448 16.4166 65.6929 17.3467 70.4777 17.2139C77.3887 17.0811 84.0343 17.4795 90.9455 18.2773C91.0783 18.4102 91.2111 18.6758 90.9455 18.6758V18.6757Z" fill="#FF873D"/>
<path d="M33.7951 29.3084C28.7444 29.3084 23.827 28.9095 18.7765 28.7767C14.3903 28.6439 9.87188 28.9095 5.75152 27.7132C5.08698 27.5804 5.08698 26.5169 5.75152 26.3841C14.1249 24.2577 25.5548 26.3842 33.928 28.245C34.593 28.3782 34.4601 29.3084 33.7956 29.3084L33.7951 29.3084Z" fill="#FF873D"/>
<path d="M30.8712 31.8336C26.485 32.4982 22.0993 33.1627 17.5804 33.6945C13.1942 34.2262 8.27681 35.4225 3.89084 35.0235C3.22631 34.8907 2.96067 34.2262 3.49195 33.8272C6.68185 31.8336 10.9347 32.0992 14.5235 31.7008C19.8398 31.1691 25.289 30.9035 30.6054 30.6374C31.4027 30.6374 31.536 31.8337 30.8715 31.8337L30.8712 31.8336Z" fill="#FF873D"/>
</g>
<defs>
<clipPath id="clip0_13_18">
<rect width="128.8" height="92" fill="white"/>
</clipPath>
</defs>
</svg>
